<svg xmlns="http://www.w3.org/2000/svg" xmlns:xlink="http://www.w3.org/1999/xlink" width="500" zoomAndPan="magnify" viewBox="0 0 375 374.999991" height="500" preserveAspectRatio="xMidYMid meet" version="1.0"><defs><filter x="0%" y="0%" width="100%" height="100%" id="b986c70621"><feColorMatrix values="0 0 0 0 1 0 0 0 0 1 0 0 0 0 1 0 0 0 1 0" color-interpolation-filters="sRGB"/></filter><g/><mask id="ca3e08986d"><g filter="url(#b986c70621)"><rect x="-37.5" width="450" fill="#000000" y="-37.499999" height="449.999989" fill-opacity="0.48"/></g></mask><clipPath id="94d85eabea"><rect x="0" width="172" y="0" height="207"/></clipPath></defs><rect x="-37.5" width="450" fill="#ffffff" y="-37.499999" height="449.999989" fill-opacity="1"/><rect x="-37.5" width="450" fill="#ffffff" y="-37.499999" height="449.999989" fill-opacity="1"/><g mask="url(#ca3e08986d)"><g transform="matrix(1, 0, 0, 1, 102, 84)"><g clip-path="url(#94d85eabea)"><g fill="#ebc4ca" fill-opacity="1"><g transform="translate(0.0527322, 155.249984)"><g><path d="M 3.296875 0 L 3.296875 -1.5 L 6.453125 -2.703125 C 8.554688 -3.503906 9.882812 -4.476562 10.4375 -5.625 C 10.988281 -6.78125 11.265625 -8.359375 11.265625 -10.359375 L 11.265625 -88.75 C 11.265625 -90.75 10.960938 -92.347656 10.359375 -93.546875 C 9.753906 -94.753906 8.453125 -95.707031 6.453125 -96.40625 L 3.296875 -97.609375 L 3.296875 -99.109375 L 41.59375 -99.109375 L 41.59375 -97.609375 L 38.890625 -96.40625 C 36.992188 -95.707031 35.691406 -94.734375 34.984375 -93.484375 C 34.285156 -92.234375 33.9375 -90.601562 33.9375 -88.59375 L 33.9375 -3 L 57.0625 -3 C 60.769531 -3 63.5 -3.898438 65.25 -5.703125 C 67 -7.503906 68.675781 -10.109375 70.28125 -13.515625 L 76.140625 -26.125 L 77.640625 -26.125 L 76.28125 0 Z M 3.296875 0 "/></g></g></g><g fill="#ebc4ca" fill-opacity="1"><g transform="translate(81.141293, 155.249984)"><g><path d="M 3.296875 0 L 3.296875 -1.5 L 6 -2.546875 C 8.007812 -3.347656 9.390625 -4.347656 10.140625 -5.546875 C 10.890625 -6.753906 11.265625 -8.359375 11.265625 -10.359375 L 11.265625 -88.75 C 11.265625 -90.851562 10.890625 -92.503906 10.140625 -93.703125 C 9.390625 -94.910156 8.007812 -95.863281 6 -96.5625 L 3.296875 -97.609375 L 3.296875 -99.109375 L 46.40625 -99.109375 C 58.613281 -99.109375 67.421875 -96.878906 72.828125 -92.421875 C 78.234375 -87.972656 80.9375 -82.34375 80.9375 -75.53125 C 80.9375 -70.425781 78.957031 -65.796875 75 -61.640625 C 71.050781 -57.484375 64.269531 -54.554688 54.65625 -52.859375 C 65.675781 -51.660156 73.738281 -48.78125 78.84375 -44.21875 C 83.945312 -39.664062 86.5 -34.132812 86.5 -27.625 C 86.5 -24.425781 85.796875 -21.195312 84.390625 -17.9375 C 82.992188 -14.6875 80.617188 -11.707031 77.265625 -9 C 73.910156 -6.300781 69.328125 -4.125 63.515625 -2.46875 C 57.710938 -0.820312 50.359375 0 41.453125 0 Z M 33.484375 -53.015625 L 39.953125 -53.015625 C 46.648438 -53.015625 51.476562 -54.566406 54.4375 -57.671875 C 57.394531 -60.773438 58.875 -66.179688 58.875 -73.890625 C 58.875 -81.890625 57.519531 -87.59375 54.8125 -91 C 52.113281 -94.40625 47.707031 -96.109375 41.59375 -96.109375 L 33.484375 -96.109375 Z M 33.484375 -3 L 41 -3 C 48.507812 -3 54.085938 -5 57.734375 -9 C 61.390625 -13.007812 63.21875 -19.269531 63.21875 -27.78125 C 63.21875 -35.789062 61.460938 -41.492188 57.953125 -44.890625 C 54.453125 -48.296875 48.703125 -50 40.703125 -50 L 33.484375 -50 Z M 33.484375 -3 "/></g></g></g></g></g></g><g fill="#e67183" fill-opacity="1"><g transform="translate(113.199503, 198.462381)"><g><path d="M 53.75 5.390625 C 53.769531 5.390625 53.800781 5.390625 53.84375 5.390625 C 53.976562 5.410156 54.109375 5.4375 54.234375 5.46875 C 54.367188 5.507812 54.488281 5.59375 54.59375 5.71875 C 54.625 5.75 54.648438 5.796875 54.671875 5.859375 C 54.703125 5.921875 54.703125 5.984375 54.671875 6.046875 C 54.648438 6.109375 54.613281 6.160156 54.5625 6.203125 C 54.519531 6.253906 54.476562 6.28125 54.4375 6.28125 C 54.195312 6.320312 53.945312 6.320312 53.6875 6.28125 C 47.625 5.019531 40.894531 4.207031 33.5 3.84375 C 26.113281 3.476562 19.300781 3.613281 13.0625 4.25 C 12.78125 4.269531 12.507812 4.300781 12.25 4.34375 C 12.007812 4.363281 11.78125 4.378906 11.5625 4.390625 C 10.863281 4.492188 10.265625 4.804688 9.765625 5.328125 C 8.648438 6.546875 7.414062 7.617188 6.0625 8.546875 C 5.007812 9.265625 3.84375 9.664062 2.5625 9.75 C 2.050781 9.78125 1.554688 9.695312 1.078125 9.5 C 0.617188 9.300781 0.320312 9.003906 0.1875 8.609375 C 0.0625 8.210938 0.117188 7.785156 0.359375 7.328125 C 0.765625 6.679688 1.421875 6.128906 2.328125 5.671875 C 3.242188 5.222656 4.21875 4.851562 5.25 4.5625 C 6.289062 4.269531 7.171875 4.054688 7.890625 3.921875 C 8.847656 3.742188 9.625 3.28125 10.21875 2.53125 C 13.101562 -0.976562 15.878906 -4.953125 18.546875 -9.390625 C 21.210938 -13.835938 23.671875 -18.40625 25.921875 -23.09375 C 28.171875 -27.789062 30.101562 -32.289062 31.71875 -36.59375 C 31.769531 -36.820312 31.859375 -37.019531 31.984375 -37.1875 C 32.117188 -37.351562 32.316406 -37.46875 32.578125 -37.53125 C 32.816406 -37.5625 33.023438 -37.507812 33.203125 -37.375 C 33.378906 -37.25 33.453125 -37.070312 33.421875 -36.84375 C 33.335938 -36.28125 33.195312 -35.726562 33 -35.1875 C 31.445312 -31.113281 29.609375 -26.863281 27.484375 -22.4375 C 25.367188 -18.019531 23.0625 -13.710938 20.5625 -9.515625 C 18.0625 -5.316406 15.488281 -1.515625 12.84375 1.890625 C 12.289062 2.585938 12.117188 2.988281 12.328125 3.09375 C 12.546875 3.207031 12.972656 3.203125 13.609375 3.078125 C 13.753906 3.054688 13.894531 3.039062 14.03125 3.03125 C 19.007812 2.46875 24.171875 2.296875 29.515625 2.515625 C 34.867188 2.734375 40.140625 3.203125 45.328125 3.921875 C 47.160156 4.179688 48.953125 4.476562 50.703125 4.8125 C 51.734375 5.007812 52.75 5.203125 53.75 5.390625 Z M 3.3125 8.453125 C 4.832031 7.835938 6.085938 6.863281 7.078125 5.53125 C 5.441406 5.65625 3.988281 6.164062 2.71875 7.0625 C 2.320312 7.351562 2.085938 7.640625 2.015625 7.921875 C 1.941406 8.203125 2.019531 8.40625 2.25 8.53125 C 2.488281 8.664062 2.84375 8.640625 3.3125 8.453125 Z M 3.3125 8.453125 "/></g></g></g><g fill="#e67183" fill-opacity="1"><g transform="translate(142.481974, 198.462381)"><g><path d="M 0.34375 -2.40625 C -0.519531 -2.40625 -0.953125 -2.851562 -0.953125 -3.75 C -0.953125 -4.84375 -0.238281 -6.773438 1.1875 -9.546875 C 1.238281 -9.660156 1.335938 -9.71875 1.484375 -9.71875 C 2.046875 -9.71875 2.328125 -9.492188 2.328125 -9.046875 C 2.328125 -8.878906 2.28125 -8.675781 2.1875 -8.4375 C 2.144531 -8.375 1.671875 -7.179688 0.765625 -4.859375 C 0.617188 -4.472656 0.546875 -4.191406 0.546875 -4.015625 C 0.546875 -3.816406 0.632812 -3.71875 0.8125 -3.71875 C 1.476562 -3.71875 3.210938 -5.359375 6.015625 -8.640625 C 6.378906 -9.085938 6.734375 -9.3125 7.078125 -9.3125 C 7.597656 -9.3125 7.859375 -9.117188 7.859375 -8.734375 C 7.859375 -8.597656 7.703125 -8.050781 7.390625 -7.09375 C 6.953125 -5.800781 6.734375 -5.054688 6.734375 -4.859375 C 6.734375 -4.554688 6.832031 -4.40625 7.03125 -4.40625 C 7.53125 -4.40625 8.984375 -5.296875 11.390625 -7.078125 C 11.523438 -7.191406 11.640625 -7.25 11.734375 -7.25 C 11.960938 -7.25 12.078125 -7.054688 12.078125 -6.671875 C 12.078125 -6.578125 12.046875 -6.5 11.984375 -6.4375 C 10.710938 -5.34375 9.628906 -4.507812 8.734375 -3.9375 C 7.910156 -3.414062 7.1875 -3.15625 6.5625 -3.15625 L 6.359375 -3.15625 C 5.429688 -3.351562 4.96875 -4.078125 4.96875 -5.328125 C 3.96875 -4.453125 3.140625 -3.742188 2.484375 -3.203125 C 1.828125 -2.671875 1.113281 -2.40625 0.34375 -2.40625 Z M 0.34375 -2.40625 "/></g></g></g><g fill="#e67183" fill-opacity="1"><g transform="translate(157.804027, 198.462381)"><g><path d="M 11.015625 -6.328125 C 10.859375 -6.179688 10.6875 -6.050781 10.5 -5.9375 C 9.925781 -5.570312 9.40625 -5.285156 8.9375 -5.078125 C 8.46875 -4.867188 7.914062 -4.65625 7.28125 -4.4375 C 6.34375 -4.15625 5.738281 -4.21875 5.46875 -4.625 C 5.207031 -5.03125 5.164062 -5.597656 5.34375 -6.328125 C 5.601562 -7.359375 5.75 -8.113281 5.78125 -8.59375 C 5.820312 -9.070312 5.664062 -9.234375 5.3125 -9.078125 C 4.957031 -8.929688 4.304688 -8.4375 3.359375 -7.59375 C 2.046875 -6.46875 0.925781 -5.175781 0 -3.71875 C -0.113281 -3.519531 -0.253906 -3.359375 -0.421875 -3.234375 C -0.597656 -3.109375 -0.816406 -3.046875 -1.078125 -3.046875 C -1.316406 -3.046875 -1.488281 -3.109375 -1.59375 -3.234375 C -1.707031 -3.359375 -1.710938 -3.53125 -1.609375 -3.75 C -1.078125 -4.925781 -0.53125 -6.09375 0.03125 -7.25 C 0.988281 -9.257812 1.929688 -11.257812 2.859375 -13.25 C 3.554688 -14.738281 4.242188 -16.226562 4.921875 -17.71875 C 5.335938 -18.601562 5.742188 -19.484375 6.140625 -20.359375 C 6.179688 -20.429688 6.222656 -20.507812 6.265625 -20.59375 C 6.304688 -20.6875 6.347656 -20.78125 6.390625 -20.875 C 6.441406 -20.976562 6.5 -21.09375 6.5625 -21.21875 C 6.625 -21.3125 6.726562 -21.390625 6.875 -21.453125 C 7.019531 -21.515625 7.164062 -21.554688 7.3125 -21.578125 C 7.46875 -21.597656 7.585938 -21.585938 7.671875 -21.546875 C 7.785156 -21.472656 7.847656 -21.390625 7.859375 -21.296875 C 7.878906 -21.203125 7.863281 -21.109375 7.8125 -21.015625 C 7.800781 -20.992188 7.796875 -20.960938 7.796875 -20.921875 C 7.609375 -20.378906 7.414062 -19.863281 7.21875 -19.375 C 6.070312 -16.601562 4.820312 -13.875 3.46875 -11.1875 C 3.363281 -11 3.242188 -10.78125 3.109375 -10.53125 C 2.910156 -10.164062 2.722656 -9.804688 2.546875 -9.453125 C 2.378906 -9.109375 2.320312 -8.878906 2.375 -8.765625 C 2.4375 -8.648438 2.707031 -8.742188 3.1875 -9.046875 C 3.332031 -9.140625 3.460938 -9.238281 3.578125 -9.34375 C 3.960938 -9.59375 4.335938 -9.832031 4.703125 -10.0625 C 5.035156 -10.28125 5.398438 -10.394531 5.796875 -10.40625 C 6.742188 -10.46875 7.273438 -10.039062 7.390625 -9.125 C 7.441406 -8.75 7.429688 -8.378906 7.359375 -8.015625 C 7.285156 -7.660156 7.195312 -7.304688 7.09375 -6.953125 C 7.082031 -6.847656 7.066406 -6.75 7.046875 -6.65625 C 6.878906 -6.039062 6.921875 -5.6875 7.171875 -5.59375 C 7.421875 -5.5 7.769531 -5.546875 8.21875 -5.734375 C 8.664062 -5.929688 9.117188 -6.164062 9.578125 -6.4375 C 9.898438 -6.59375 10.179688 -6.726562 10.421875 -6.84375 C 10.660156 -6.96875 10.835938 -7.019531 10.953125 -7 C 11.171875 -6.96875 11.269531 -6.878906 11.25 -6.734375 C 11.226562 -6.597656 11.148438 -6.460938 11.015625 -6.328125 Z M 11.015625 -6.328125 "/></g></g></g><g fill="#e67183" fill-opacity="1"><g transform="translate(172.325634, 198.462381)"><g><path d="M 96.875 9.03125 C 96.90625 9.039062 96.925781 9.078125 96.9375 9.140625 C 96.957031 9.210938 96.96875 9.265625 96.96875 9.296875 C 96.9375 9.359375 96.898438 9.40625 96.859375 9.4375 C 96.828125 9.476562 96.789062 9.515625 96.75 9.546875 C 96.5625 9.617188 96.382812 9.644531 96.21875 9.625 C 96.039062 9.625 95.867188 9.613281 95.703125 9.59375 C 95.617188 9.570312 95.550781 9.5625 95.5 9.5625 C 94.65625 9.488281 93.816406 9.398438 92.984375 9.296875 C 91.035156 9.097656 89.09375 8.910156 87.15625 8.734375 C 83.414062 8.390625 79.664062 8.078125 75.90625 7.796875 C 70.65625 7.441406 65.390625 7.164062 60.109375 6.96875 C 56.328125 6.832031 52.546875 6.734375 48.765625 6.671875 C 48.347656 6.648438 47.925781 6.640625 47.5 6.640625 C 47.070312 6.640625 46.648438 6.628906 46.234375 6.609375 C 43.660156 6.546875 41.085938 6.515625 38.515625 6.515625 L 38.46875 6.515625 C 36.957031 6.515625 35.453125 6.546875 33.953125 6.609375 C 33.398438 6.628906 32.851562 6.640625 32.3125 6.640625 C 31.632812 6.660156 30.945312 6.789062 30.25 7.03125 C 25.03125 8.851562 19.753906 10.195312 14.421875 11.0625 C 12.890625 11.3125 11.359375 11.519531 9.828125 11.6875 C 8.296875 11.863281 6.757812 11.953125 5.21875 11.953125 C 4.726562 11.953125 4.234375 11.945312 3.734375 11.9375 C 2.984375 11.9375 2.257812 11.832031 1.5625 11.625 C 1.28125 11.5625 1.019531 11.472656 0.78125 11.359375 C 0.5625 11.273438 0.375 11.160156 0.21875 11.015625 C 0.0703125 10.867188 0.0078125 10.660156 0.03125 10.390625 C 0.0703125 10.140625 0.179688 9.921875 0.359375 9.734375 C 0.535156 9.554688 0.738281 9.410156 0.96875 9.296875 C 1.664062 8.898438 2.394531 8.632812 3.15625 8.5 C 3.539062 8.394531 3.929688 8.300781 4.328125 8.21875 C 5.617188 7.925781 6.921875 7.679688 8.234375 7.484375 C 13.492188 6.703125 18.734375 6.191406 23.953125 5.953125 C 24.273438 5.929688 24.582031 5.910156 24.875 5.890625 C 26.488281 5.804688 28.097656 5.738281 29.703125 5.6875 C 30.285156 5.664062 30.867188 5.554688 31.453125 5.359375 C 33.441406 4.617188 35.398438 3.789062 37.328125 2.875 C 39.265625 1.957031 41.15625 0.921875 43 -0.234375 C 44.539062 -1.160156 45.957031 -2.265625 47.25 -3.546875 C 47.976562 -4.242188 48.570312 -5.03125 49.03125 -5.90625 C 49.65625 -7.175781 49.546875 -8.28125 48.703125 -9.21875 C 48.097656 -9.832031 47.390625 -10.3125 46.578125 -10.65625 C 45.503906 -11.15625 44.382812 -11.550781 43.21875 -11.84375 C 42.0625 -12.144531 40.882812 -12.40625 39.6875 -12.625 C 36.300781 -13.175781 32.847656 -13.515625 29.328125 -13.640625 C 29.203125 -13.640625 29.082031 -13.640625 28.96875 -13.640625 C 28.832031 -13.640625 28.691406 -13.640625 28.546875 -13.640625 C 28.242188 -13.597656 28.015625 -13.414062 27.859375 -13.09375 C 27.785156 -12.957031 27.710938 -12.828125 27.640625 -12.703125 C 27.492188 -12.398438 27.335938 -12.101562 27.171875 -11.8125 C 25.921875 -9.28125 24.675781 -6.765625 23.4375 -4.265625 C 22.40625 -2.128906 21.363281 -0.00390625 20.3125 2.109375 C 20.289062 2.179688 20.257812 2.25 20.21875 2.3125 C 20.09375 2.570312 19.953125 2.816406 19.796875 3.046875 C 19.617188 3.253906 19.410156 3.335938 19.171875 3.296875 C 19.035156 3.316406 18.894531 3.304688 18.75 3.265625 C 18.507812 3.140625 18.429688 2.953125 18.515625 2.703125 C 18.734375 2.140625 18.972656 1.59375 19.234375 1.0625 C 20.804688 -2.289062 22.378906 -5.625 23.953125 -8.9375 C 24.472656 -10 24.976562 -11.054688 25.46875 -12.109375 C 25.507812 -12.203125 25.550781 -12.289062 25.59375 -12.375 C 25.71875 -12.625 25.828125 -12.863281 25.921875 -13.09375 C 26.054688 -13.457031 25.945312 -13.648438 25.59375 -13.671875 C 25.414062 -13.679688 25.238281 -13.6875 25.0625 -13.6875 C 24.820312 -13.707031 24.585938 -13.726562 24.359375 -13.75 C 24.328125 -13.75 24.28125 -13.75 24.21875 -13.75 C 23.945312 -13.78125 23.691406 -13.828125 23.453125 -13.890625 C 23.210938 -13.960938 23.066406 -14.144531 23.015625 -14.4375 C 23.015625 -14.769531 23.128906 -15.019531 23.359375 -15.1875 C 23.597656 -15.351562 23.851562 -15.484375 24.125 -15.578125 C 24.226562 -15.617188 24.320312 -15.644531 24.40625 -15.65625 C 25.15625 -15.976562 25.921875 -16.257812 26.703125 -16.5 C 26.773438 -16.539062 26.863281 -16.566406 26.96875 -16.578125 C 27.5625 -16.765625 28.007812 -17.144531 28.3125 -17.71875 C 29.644531 -20.25 30.976562 -22.769531 32.3125 -25.28125 C 32.769531 -26.15625 33.238281 -27.039062 33.71875 -27.9375 C 33.78125 -28.0625 33.835938 -28.179688 33.890625 -28.296875 C 34.003906 -28.546875 34.144531 -28.796875 34.3125 -29.046875 C 34.507812 -29.347656 34.765625 -29.46875 35.078125 -29.40625 C 35.222656 -29.414062 35.363281 -29.40625 35.5 -29.375 C 35.800781 -29.238281 35.894531 -29.003906 35.78125 -28.671875 C 35.78125 -28.660156 35.769531 -28.65625 35.75 -28.65625 C 35.519531 -27.976562 35.25 -27.320312 34.9375 -26.6875 C 34.15625 -25.15625 33.359375 -23.617188 32.546875 -22.078125 C 32.296875 -21.566406 32.03125 -21.050781 31.75 -20.53125 C 31.601562 -20.269531 31.460938 -20.015625 31.328125 -19.765625 C 31.085938 -19.316406 30.859375 -18.867188 30.640625 -18.421875 C 30.640625 -18.421875 30.628906 -18.40625 30.609375 -18.375 C 30.566406 -18.300781 30.535156 -18.222656 30.515625 -18.140625 C 30.492188 -18.066406 30.535156 -18.007812 30.640625 -17.96875 C 30.703125 -17.9375 30.765625 -17.914062 30.828125 -17.90625 L 30.875 -17.921875 C 30.988281 -17.953125 31.117188 -17.988281 31.265625 -18.03125 C 31.304688 -18.039062 31.34375 -18.054688 31.375 -18.078125 C 35.738281 -19.453125 40.097656 -20.875 44.453125 -22.34375 C 48.804688 -23.820312 53.128906 -25.410156 57.421875 -27.109375 C 57.523438 -27.140625 57.617188 -27.164062 57.703125 -27.1875 C 59.015625 -27.726562 60.320312 -28.269531 61.625 -28.8125 C 62.925781 -29.363281 64.210938 -29.957031 65.484375 -30.59375 C 66.429688 -31.050781 67.328125 -31.597656 68.171875 -32.234375 C 69.960938 -33.691406 70.039062 -34.992188 68.40625 -36.140625 C 67.632812 -36.671875 66.796875 -37.070312 65.890625 -37.34375 C 64.984375 -37.625 64.050781 -37.820312 63.09375 -37.9375 C 60.820312 -38.28125 58.523438 -38.453125 56.203125 -38.453125 L 56.15625 -38.453125 C 53.914062 -38.429688 51.648438 -38.320312 49.359375 -38.125 C 44.285156 -37.675781 39.21875 -36.816406 34.15625 -35.546875 C 29.5 -34.398438 24.929688 -32.832031 20.453125 -30.84375 C 19.273438 -30.320312 18.128906 -29.734375 17.015625 -29.078125 C 16.703125 -28.878906 16.382812 -28.695312 16.0625 -28.53125 C 15.882812 -28.457031 15.710938 -28.4375 15.546875 -28.46875 C 15.335938 -28.4375 15.164062 -28.5 15.03125 -28.65625 C 14.925781 -28.800781 14.914062 -28.929688 15 -29.046875 C 15.09375 -29.160156 15.207031 -29.257812 15.34375 -29.34375 C 16.3125 -30.019531 17.3125 -30.585938 18.34375 -31.046875 C 18.351562 -31.046875 18.367188 -31.050781 18.390625 -31.0625 C 22.617188 -33.050781 26.941406 -34.644531 31.359375 -35.84375 C 37.722656 -37.601562 44.125 -38.695312 50.5625 -39.125 C 52.550781 -39.269531 54.53125 -39.34375 56.5 -39.34375 C 58.644531 -39.363281 60.769531 -39.253906 62.875 -39.015625 C 64.875 -38.816406 66.769531 -38.359375 68.5625 -37.640625 C 69.394531 -37.316406 70.117188 -36.84375 70.734375 -36.21875 C 71.253906 -35.65625 71.484375 -35.035156 71.421875 -34.359375 C 71.367188 -33.679688 71.039062 -33.015625 70.4375 -32.359375 C 69.675781 -31.597656 68.832031 -30.96875 67.90625 -30.46875 C 66.769531 -29.832031 65.613281 -29.253906 64.4375 -28.734375 C 63.257812 -28.222656 62.078125 -27.726562 60.890625 -27.25 C 60.847656 -27.238281 60.796875 -27.21875 60.734375 -27.1875 C 56.578125 -25.476562 52.378906 -23.890625 48.140625 -22.421875 C 43.910156 -20.960938 39.664062 -19.554688 35.40625 -18.203125 C 34.695312 -17.960938 33.984375 -17.722656 33.265625 -17.484375 C 32.273438 -17.148438 31.28125 -16.820312 30.28125 -16.5 C 29.84375 -16.40625 29.492188 -16.164062 29.234375 -15.78125 C 29.015625 -15.414062 28.914062 -15.132812 28.9375 -14.9375 C 28.96875 -14.738281 29.195312 -14.632812 29.625 -14.625 C 30.757812 -14.582031 31.890625 -14.519531 33.015625 -14.4375 C 33.097656 -14.4375 33.171875 -14.4375 33.234375 -14.4375 C 35.378906 -14.300781 37.5 -14.070312 39.59375 -13.75 C 41.6875 -13.4375 43.726562 -12.96875 45.71875 -12.34375 C 46.570312 -12.070312 47.398438 -11.757812 48.203125 -11.40625 C 48.734375 -11.15625 49.238281 -10.851562 49.71875 -10.5 C 51.769531 -8.90625 51.921875 -6.90625 50.171875 -4.5 C 49.585938 -3.695312 48.921875 -2.972656 48.171875 -2.328125 C 46.316406 -0.734375 44.328125 0.644531 42.203125 1.8125 C 40.359375 2.820312 38.492188 3.753906 36.609375 4.609375 C 36.390625 4.679688 36.160156 4.78125 35.921875 4.90625 C 35.804688 4.96875 35.675781 5.03125 35.53125 5.09375 C 35.644531 5.269531 35.753906 5.375 35.859375 5.40625 C 35.960938 5.445312 36.078125 5.457031 36.203125 5.4375 C 36.203125 5.4375 36.207031 5.4375 36.21875 5.4375 C 36.5625 5.457031 36.890625 5.46875 37.203125 5.46875 L 37.25 5.46875 C 37.457031 5.46875 37.671875 5.457031 37.890625 5.4375 C 38.890625 5.4375 39.882812 5.4375 40.875 5.4375 C 46.789062 5.457031 52.675781 5.59375 58.53125 5.84375 C 64.894531 6.050781 71.234375 6.4375 77.546875 7 C 79.554688 7.175781 81.566406 7.351562 83.578125 7.53125 C 86.003906 7.726562 88.425781 7.9375 90.84375 8.15625 C 92.25 8.300781 93.648438 8.472656 95.046875 8.671875 C 95.378906 8.710938 95.726562 8.753906 96.09375 8.796875 C 96.34375 8.828125 96.601562 8.90625 96.875 9.03125 Z M 26.671875 -14.828125 C 26.703125 -14.847656 26.738281 -14.882812 26.78125 -14.9375 C 26.820312 -15 26.851562 -15.050781 26.875 -15.09375 C 26.875 -15.132812 26.863281 -15.164062 26.84375 -15.1875 C 26.820312 -15.207031 26.789062 -15.238281 26.75 -15.28125 C 26.75 -15.28125 26.738281 -15.289062 26.71875 -15.3125 C 26.507812 -15.257812 26.3125 -15.148438 26.125 -14.984375 C 26.09375 -14.941406 26.078125 -14.894531 26.078125 -14.84375 C 26.085938 -14.789062 26.125 -14.765625 26.1875 -14.765625 C 26.34375 -14.765625 26.503906 -14.785156 26.671875 -14.828125 Z M 25.171875 7.453125 C 25.210938 7.421875 25.253906 7.40625 25.296875 7.40625 C 25.367188 7.394531 25.445312 7.363281 25.53125 7.3125 C 25.613281 7.257812 25.671875 7.179688 25.703125 7.078125 C 25.671875 7.003906 25.632812 6.957031 25.59375 6.9375 C 25.570312 6.9375 25.550781 6.9375 25.53125 6.9375 C 20.71875 7.15625 15.890625 7.5625 11.046875 8.15625 C 8.660156 8.4375 6.28125 8.882812 3.90625 9.5 C 3.851562 9.53125 3.796875 9.550781 3.734375 9.5625 C 3.316406 9.644531 2.941406 9.816406 2.609375 10.078125 C 2.523438 10.140625 2.472656 10.207031 2.453125 10.28125 C 2.429688 10.351562 2.46875 10.421875 2.5625 10.484375 C 2.757812 10.566406 2.972656 10.632812 3.203125 10.6875 C 3.972656 10.832031 4.753906 10.90625 5.546875 10.90625 C 6.222656 10.90625 6.90625 10.875 7.59375 10.8125 C 13.476562 10.320312 19.335938 9.203125 25.171875 7.453125 Z M 25.171875 7.453125 "/></g></g></g><g fill="#e67183" fill-opacity="1"><g transform="translate(230.342947, 198.462381)"><g><path d="M 7.734375 -5.203125 C 7.210938 -4.691406 6.601562 -4.253906 5.90625 -3.890625 C 5.207031 -3.523438 4.625 -3.285156 4.15625 -3.171875 C 3.6875 -3.054688 3.203125 -2.988281 2.703125 -2.96875 C 1.898438 -2.9375 1.164062 -3.046875 0.5 -3.296875 C -0.59375 -3.742188 -0.972656 -4.59375 -0.640625 -5.84375 C -0.316406 -6.914062 0.320312 -7.753906 1.28125 -8.359375 C 2.25 -8.960938 3.25 -9.257812 4.28125 -9.25 C 4.28125 -9.25 4.289062 -9.25 4.3125 -9.25 C 4.570312 -9.257812 4.820312 -9.238281 5.0625 -9.1875 C 5.457031 -9.039062 5.707031 -8.804688 5.8125 -8.484375 C 5.925781 -8.160156 5.859375 -7.796875 5.609375 -7.390625 C 5.023438 -6.515625 4.238281 -6.03125 3.25 -5.9375 C 2.582031 -5.875 1.941406 -5.90625 1.328125 -6.03125 C 1.210938 -6.039062 1.109375 -6.003906 1.015625 -5.921875 C 0.921875 -5.847656 0.867188 -5.75 0.859375 -5.625 C 0.671875 -4.851562 0.910156 -4.359375 1.578125 -4.140625 C 2.390625 -3.859375 3.234375 -3.859375 4.109375 -4.140625 C 5.117188 -4.453125 6.082031 -5.046875 7 -5.921875 C 7.914062 -6.804688 8.441406 -7.21875 8.578125 -7.15625 C 8.722656 -7.101562 8.769531 -6.9375 8.71875 -6.65625 C 8.59375 -6.207031 8.265625 -5.722656 7.734375 -5.203125 Z M 1.953125 -7.390625 C 1.898438 -7.328125 1.863281 -7.257812 1.84375 -7.1875 C 1.820312 -7.113281 1.847656 -7.039062 1.921875 -6.96875 C 2.242188 -6.789062 2.585938 -6.726562 2.953125 -6.78125 C 3.328125 -6.832031 3.640625 -6.972656 3.890625 -7.203125 C 4.148438 -7.429688 4.265625 -7.710938 4.234375 -8.046875 C 4.203125 -8.160156 4.132812 -8.234375 4.03125 -8.265625 C 3.9375 -8.296875 3.84375 -8.304688 3.75 -8.296875 C 3.070312 -8.171875 2.472656 -7.867188 1.953125 -7.390625 Z M 1.953125 -7.390625 "/></g></g></g><g fill="#e67183" fill-opacity="1"><g transform="translate(242.408921, 198.462381)"><g><path d="M 9.84375 -6.90625 C 10.0625 -6.789062 10.078125 -6.5 9.890625 -6.03125 C 9.628906 -5.6875 9.347656 -5.363281 9.046875 -5.0625 C 8.753906 -4.757812 8.429688 -4.492188 8.078125 -4.265625 C 8.046875 -4.265625 8.03125 -4.253906 8.03125 -4.234375 C 7.800781 -4.066406 7.550781 -3.925781 7.28125 -3.8125 C 5.125 -3.03125 4.023438 -3.488281 3.984375 -5.1875 C 3.097656 -4.425781 2.507812 -3.957031 2.21875 -3.78125 C 1.5 -3.363281 0.722656 -3.175781 -0.109375 -3.21875 C -0.722656 -3.25 -1.140625 -3.429688 -1.359375 -3.765625 C -1.585938 -4.109375 -1.566406 -4.570312 -1.296875 -5.15625 C -0.898438 -6.070312 -0.335938 -6.882812 0.390625 -7.59375 C 1.253906 -8.394531 2.207031 -9.035156 3.25 -9.515625 C 3.8125 -9.796875 4.398438 -9.90625 5.015625 -9.84375 C 5.628906 -9.800781 6.003906 -9.453125 6.140625 -8.796875 C 6.191406 -8.597656 6.140625 -8.421875 5.984375 -8.265625 C 5.785156 -8.085938 5.554688 -8.046875 5.296875 -8.140625 C 5.273438 -8.140625 5.25 -8.144531 5.21875 -8.15625 C 5.1875 -8.164062 5.160156 -8.179688 5.140625 -8.203125 C 4.878906 -8.554688 4.613281 -8.703125 4.34375 -8.640625 C 4.082031 -8.585938 3.800781 -8.472656 3.5 -8.296875 C 2.101562 -7.484375 1.066406 -6.347656 0.390625 -4.890625 C 0.359375 -4.828125 0.335938 -4.753906 0.328125 -4.671875 C 0.316406 -4.597656 0.335938 -4.539062 0.390625 -4.5 C 0.554688 -4.4375 0.738281 -4.441406 0.9375 -4.515625 C 1.132812 -4.597656 1.332031 -4.710938 1.53125 -4.859375 C 1.726562 -5.015625 1.894531 -5.140625 2.03125 -5.234375 C 2.050781 -5.265625 2.0625 -5.28125 2.0625 -5.28125 C 2.71875 -5.832031 3.363281 -6.394531 4 -6.96875 C 4.28125 -7.269531 4.628906 -7.441406 5.046875 -7.484375 C 5.640625 -7.484375 5.890625 -7.210938 5.796875 -6.671875 C 5.742188 -6.472656 5.6875 -6.273438 5.625 -6.078125 C 5.382812 -5.222656 5.375 -4.71875 5.59375 -4.5625 C 5.8125 -4.414062 6.144531 -4.414062 6.59375 -4.5625 C 7.039062 -4.71875 7.488281 -5.003906 7.9375 -5.421875 C 8.382812 -5.835938 8.757812 -6.21875 9.0625 -6.5625 C 9.375 -6.914062 9.632812 -7.03125 9.84375 -6.90625 Z M 9.84375 -6.90625 "/></g></g></g></svg>